<svg id="icons" enable-background="new 0 0 64 64" height="512" viewBox="0 0 64 64" width="512" xmlns="http://www.w3.org/2000/svg"><path d="m63.001 38.498h-2.187c-.414-1.161-1.514-2-2.815-2h-3.994c-1.302 0-2.401.839-2.815 2h-3.185c-.553 0-1 .447-1 1v1h-1.004v-1c0-.553-.447-1-1-1h-8.985v-1.495c7.438-1.812 12.984-8.513 12.984-16.501 0-9.374-7.626-17-17-17s-17 7.626-17 17c0 8 5.561 14.709 13.016 16.509v1.487h-9.017c-.553 0-1 .447-1 1v1h-1.004v-1c0-.553-.447-1-1-1h-3.185c-.414-1.161-1.514-2-2.815-2h-3.994c-1.302 0-2.401.839-2.815 2h-2.187c-.553 0-1 .447-1 1 0 .002.001.003.001.005v17.995c0 .553.447 1 1 1h2.186c.414 1.161 1.514 2 2.815 2h3.994c1.302 0 2.401-.839 2.815-2h3.186c.553 0 1-.447 1-1 0-.002-.001-.003-.001-.005v-.995h1.004v1c0 .553.447 1 1 1h26.002c.553 0 1-.447 1-1v-1h1.004v.995c0 .002-.001.003-.001.005 0 .553.447 1 1 1h3.186c.414 1.161 1.514 2 2.815 2h3.994c1.302 0 2.401-.839 2.815-2h2.186c.553 0 1-.447 1-1v-17.995c0-.002.001-.003.001-.005 0-.553-.447-1-1-1zm-60 18h-1.001v-16h1.001zm7.994.99c0 .004-.002.006-.002.01 0 .002.001.003.001.005-.003.55-.449.995-.999.995h-3.994c-.552 0-1-.448-1-1v-3h5.994zm0-4.99h-5.994v-8h5.994zm0-10h-5.994v-3c0-.552.448-1 1-1h3.994c.55 0 .996.445.999.995 0 .002-.001.003-.001.005 0 .004.002.006.002.01zm4 14h-2v-16h2zm3.004-2h-1.004v-12h1.004zm-.999-33.996c0-8.271 6.729-15 15-15s15 6.729 15 15-6.729 15-15 15-15-6.729-15-15zm17.016 16.869v1.127h-4v-1.122c.652.076 1.313.126 1.984.126.684 0 1.354-.052 2.016-.131zm9.985 19.127h-24.002v-16h24.002zm3.004-2h-1.004v-12h1.004zm4 2h-2v-16h2zm7.994 1c0 .552-.448 1-1 1h-3.994c-.55 0-.996-.445-.999-.995 0-.002.001-.003.001-.005 0-.004-.002-.006-.002-.01v-2.99h5.994zm0-5h-5.994v-8h5.994zm0-10h-5.994v-2.99c0-.004.002-.006.002-.01 0-.002-.001-.003-.001-.005.003-.55.449-.995.999-.995h3.994c.552 0 1 .448 1 1zm3.001 14h-1.001v-16h1.001z"/><path d="m43.942 27.771c.08-.07.153-.149.209-.247.04-.069.052-.146.074-.22 1.093-1.955 1.727-4.197 1.764-6.584.015-.068.041-.132.041-.205 0-.069-.026-.131-.039-.196-.032-2.414-.676-4.681-1.786-6.654-.02-.053-.024-.108-.054-.158-.036-.062-.09-.104-.137-.154-1.196-2.003-2.874-3.679-4.878-4.873-.04-.032-.069-.075-.115-.102-.037-.021-.077-.022-.115-.039-2.035-1.16-4.381-1.832-6.886-1.836-.001 0-.003-.001-.005-.001-.001 0-.002.001-.003.001-.005 0-.009-.001-.013-.001-2.531 0-4.901.686-6.953 1.865-.013.007-.026.006-.039.014-.016.009-.023.024-.038.034-2.094 1.223-3.839 2.969-5.061 5.063-.008.013-.021.02-.029.033-.006.011-.006.022-.011.033-1.181 2.053-1.868 4.424-1.868 6.958 0 2.521.679 4.882 1.85 6.927.014.03.015.063.031.093.033.057.076.104.117.152 2.449 4.082 6.905 6.828 12.002 6.828 5.056 0 9.48-2.703 11.942-6.731zm-21.783-.42c.446-.287.6-.871.331-1.335-.27-.463-.85-.624-1.321-.381-.604-1.271-.995-2.659-1.118-4.126.536-.02.966-.452.966-.993s-.431-.975-.967-.993c.119-1.467.506-2.856 1.107-4.128.148.08.308.121.466.121.346 0 .683-.18.867-.501.271-.469.113-1.062-.344-1.345.82-1.178 1.845-2.202 3.023-3.022.188.304.513.476.848.476.17 0 .343-.043.5-.135.467-.27.627-.857.377-1.33 1.271-.602 2.661-.987 4.128-1.106.021.535.453.964.993.964.539 0 .972-.428.992-.963 1.467.123 2.855.515 4.126 1.119-.24.471-.079 1.051.384 1.317.157.091.329.134.498.134.329 0 .646-.167.836-.459 1.176.821 2.197 1.845 3.015 3.023-.44.289-.59.868-.322 1.329.186.32.521.499.866.499.148 0 .298-.04.438-.109.599 1.271.983 2.657 1.103 4.123-.521.035-.935.457-.935.986s.413.95.933.986c-.122 1.466-.511 2.854-1.114 4.123-.469-.225-1.031-.065-1.292.39-.265.457-.118 1.026.311 1.318-2.17 3.119-5.774 5.169-9.854 5.169-4.071 0-7.67-2.042-9.841-5.151z"/><path d="m31 23.317v1.198c0 .553.447 1 1 1s1-.447 1-1v-1.198c1.161-.414 2-1.514 2-2.815 0-1.296-.831-2.393-1.984-2.811v-6.176c0-.553-.447-1-1-1s-1 .447-1 1v6.166c-1.17.41-2.016 1.513-2.016 2.821 0 1.302.839 2.401 2 2.815zm1-3.815c.552 0 1 .448 1 1s-.448 1-1 1-1-.448-1-1 .448-1 1-1z"/><path d="m36.015 28.518c0-.553-.447-1-1-1h-6c-.553 0-1 .447-1 1s.447 1 1 1h6c.552 0 1-.448 1-1z"/></svg>