<?xml version="1.0" encoding="iso-8859-1"?>
<!-- Generator: Adobe Illustrator 19.0.0, SVG Export Plug-In . SVG Version: 6.00 Build 0)  -->
<svg version="1.1" id="Capa_1" xmlns="http://www.w3.org/2000/svg" xmlns:xlink="http://www.w3.org/1999/xlink" x="0px" y="0px"
	 viewBox="0 0 512 512" style="enable-background:new 0 0 512 512;" xml:space="preserve">
<g>
	<g>
		<rect x="297.334" y="102.922" width="39.596" height="15.071"/>
	</g>
</g>
<g>
	<g>
		<path d="M384.498,496.929V390.1l4.72-3.151v-280.11L256,0L122.782,106.839v86.633v124.495v68.982l4.72,3.151v106.83H86.738V512
			h40.764h37.839h181.318h37.839h40.764v-15.071H384.498z M137.852,208.542h234.954v94.353H137.852V208.542z M150.27,496.929h-7.698
			v-96.771l3.089,2.062l4.61,3.227V496.929z M346.659,496.929H165.341v-81.572l4.354,2.907h172.609l4.354-2.907V496.929z
			 M369.428,496.929h-7.698v-91.482l4.61-3.227l3.089-2.062V496.929z M374.148,378.357l-16.304,11.416l-20.107,13.422H174.264
			l-20.107-13.422l-16.304-11.416v-60.39h236.296V378.357z M374.148,193.471H137.852V117.99h145.692v-15.071H151.756L256,19.319
			l104.244,83.601h-13.525v15.071h27.43V193.471z"/>
	</g>
</g>
<g>
	<g>
		<rect x="216.053" y="382.031" width="21.484" height="15.071"/>
	</g>
</g>
<g>
	<g>
		<polygon points="182.174,382.028 158.33,366.112 149.963,378.647 177.606,397.098 208.681,397.098 208.681,382.028 		"/>
	</g>
</g>
<g>
</g>
<g>
</g>
<g>
</g>
<g>
</g>
<g>
</g>
<g>
</g>
<g>
</g>
<g>
</g>
<g>
</g>
<g>
</g>
<g>
</g>
<g>
</g>
<g>
</g>
<g>
</g>
<g>
</g>
</svg>
